<svg xmlns="http://www.w3.org/2000/svg" xmlns:xlink="http://www.w3.org/1999/xlink" width="29.213" height="29.213" viewBox="0 0 29.213 29.213"><defs><clipPath id="a"><rect width="29.213" height="29.213" fill="none"/></clipPath></defs><g clip-path="url(#a)"><circle cx="2.796" cy="2.796" r="2.796" transform="translate(11.811 11.811)" fill="#88b92a"/><path d="M108.3,157.418a2.777,2.777,0,0,0-1.592-1.592,4.639,4.639,0,0,0-1.557-.289c-.885-.04-1.15-.049-3.389-.049s-2.5.009-3.389.049a4.642,4.642,0,0,0-1.557.289,2.778,2.778,0,0,0-1.592,1.592,4.642,4.642,0,0,0-.289,1.557c-.04.884-.049,1.15-.049,3.389s.009,2.5.049,3.389a4.641,4.641,0,0,0,.289,1.557,2.777,2.777,0,0,0,1.592,1.592,4.636,4.636,0,0,0,1.557.289c.884.04,1.149.049,3.389.049s2.505-.008,3.389-.049a4.635,4.635,0,0,0,1.557-.289,2.778,2.778,0,0,0,1.592-1.592,4.646,4.646,0,0,0,.289-1.557c.04-.885.049-1.15.049-3.389s-.008-2.5-.049-3.389A4.635,4.635,0,0,0,108.3,157.418Zm-6.538,9.253a4.307,4.307,0,1,1,4.307-4.307A4.307,4.307,0,0,1,101.76,166.671Zm4.477-7.778a1.007,1.007,0,1,1,1.006-1.007A1.007,1.007,0,0,1,106.237,158.893Z" transform="translate(-87.154 -147.757)" fill="#88b92a"/><path d="M-25.993,20A14.608,14.608,0,0,0-40.6,34.607,14.608,14.608,0,0,0-25.993,49.213,14.608,14.608,0,0,0-11.387,34.607,14.608,14.608,0,0,0-25.993,20Zm8.337,18.065a6.154,6.154,0,0,1-.39,2.036A4.289,4.289,0,0,1-20.5,42.554a6.158,6.158,0,0,1-2.036.39c-.894.041-1.18.051-3.458.051s-2.564-.01-3.458-.051a6.158,6.158,0,0,1-2.036-.39,4.108,4.108,0,0,1-1.486-.968A4.11,4.11,0,0,1-33.94,40.1a6.152,6.152,0,0,1-.39-2.036c-.041-.895-.051-1.18-.051-3.458s.01-2.564.051-3.458a6.154,6.154,0,0,1,.39-2.036,4.108,4.108,0,0,1,.968-1.485,4.107,4.107,0,0,1,1.485-.968,6.159,6.159,0,0,1,2.036-.39c.894-.041,1.18-.051,3.458-.051s2.564.01,3.458.051a6.16,6.16,0,0,1,2.036.389,4.111,4.111,0,0,1,1.486.968,4.108,4.108,0,0,1,.967,1.485,6.153,6.153,0,0,1,.39,2.036c.041.894.05,1.18.05,3.458S-17.616,37.17-17.657,38.065Z" transform="translate(40.6 -20)" fill="#88b92a"/></g></svg>