<svg xmlns="http://www.w3.org/2000/svg" width="29.213" height="29.213" viewBox="0 0 29.213 29.213"><path d="M-654.062,14.607A14.608,14.608,0,0,0-668.668,0a14.608,14.608,0,0,0-14.607,14.607,14.608,14.608,0,0,0,14.607,14.607c.086,0,.171,0,.257,0V17.839h-3.138V14.182h3.138V11.491c0-3.121,1.905-4.82,4.69-4.82a25.819,25.819,0,0,1,2.813.144v3.262h-1.92c-1.515,0-1.808.72-1.808,1.776v2.329h3.622l-.472,3.657h-3.15v10.81A14.614,14.614,0,0,0-654.062,14.607Z" transform="translate(683.275)" fill="#88b92a"/></svg>