<svg xmlns="http://www.w3.org/2000/svg" xmlns:xlink="http://www.w3.org/1999/xlink" width="29.354" height="29.354" viewBox="0 0 29.354 29.354"><defs><clipPath id="a"><rect width="29.354" height="29.354" fill="none"/></clipPath></defs><g clip-path="url(#a)"><path d="M14.677,0A14.677,14.677,0,1,0,29.354,14.677,14.679,14.679,0,0,0,14.677,0Zm.311,23.223h0a8.781,8.781,0,0,1-4.2-1.069L6.13,23.375l1.246-4.551a8.785,8.785,0,1,1,7.612,4.4Z" fill="#88b92a"/><path d="M141.375,124.469a7.3,7.3,0,0,0-6.188,11.183l.174.276-.738,2.693,2.763-.725.267.158a7.29,7.29,0,0,0,3.716,1.017h0a7.3,7.3,0,0,0,0-14.6Zm4.295,10.437a2.262,2.262,0,0,1-1.481,1.043,3.012,3.012,0,0,1-1.382-.087,12.668,12.668,0,0,1-1.251-.462,9.783,9.783,0,0,1-3.749-3.313,4.268,4.268,0,0,1-.9-2.27,2.46,2.46,0,0,1,.768-1.83.807.807,0,0,1,.585-.275c.146,0,.293,0,.421.008s.316-.051.494.377.622,1.519.677,1.629a.4.4,0,0,1,.018.385,6.258,6.258,0,0,1-.549.75c-.1.121-.224.228-.1.448a6.616,6.616,0,0,0,1.221,1.52,6,6,0,0,0,1.765,1.089c.219.11.347.091.475-.055s.549-.641.695-.86.293-.183.494-.11,1.28.6,1.5.714.366.165.421.256A1.831,1.831,0,0,1,145.669,134.906Z" transform="translate(-126.383 -117.333)" fill="#88b92a"/></g></svg>