<svg xmlns="http://www.w3.org/2000/svg" xmlns:xlink="http://www.w3.org/1999/xlink" width="29.651" height="29.651" viewBox="0 0 29.651 29.651"><defs><clipPath id="a"><rect width="29.651" height="29.651" fill="none"/></clipPath></defs><g clip-path="url(#a)"><rect width="2.118" height="2.118" transform="translate(16.414 19.591)" fill="#88b92a"/><rect width="1.059" height="1.059" transform="translate(10.06 18.532)" fill="#88b92a"/><path d="M120,125.295h5.295V120H120Zm1.059-3.706a.53.53,0,0,1,.53-.53h2.118a.53.53,0,0,1,.529.53v2.118a.529.529,0,0,1-.529.529h-2.118a.53.53,0,0,1-.53-.529Z" transform="translate(-112.058 -112.058)" fill="#88b92a"/><path d="M120,253.295h5.295V248H120Zm1.059-3.706a.53.53,0,0,1,.53-.529h2.118a.529.529,0,0,1,.529.529v2.118a.529.529,0,0,1-.529.529h-2.118a.53.53,0,0,1-.53-.529Z" transform="translate(-112.058 -231.586)" fill="#88b92a"/><rect width="1.059" height="1.059" transform="translate(10.06 10.06)" fill="#88b92a"/><rect width="1.059" height="1.059" transform="translate(18.532 10.06)" fill="#88b92a"/><path d="M14.826,0A14.826,14.826,0,1,0,29.651,14.826,14.826,14.826,0,0,0,14.826,0ZM14.3,22.239a.53.53,0,0,1-.529.529H7.413a.53.53,0,0,1-.529-.529V15.885a.53.53,0,0,1,.529-.529h6.354a.53.53,0,0,1,.529.529Zm0-8.472a.53.53,0,0,1-.529.529H7.413a.53.53,0,0,1-.529-.529V7.413a.53.53,0,0,1,.529-.529h6.354a.53.53,0,0,1,.529.529Zm1.059,2.118a.53.53,0,0,1,.529-.529H18v1.059H16.414V18H15.355Zm4.765,1.059V18H17.473V16.944Zm-.529,5.295a.53.53,0,0,1-.529.529H15.885a.53.53,0,0,1-.529-.529V19.062a.53.53,0,0,1,.529-.529h3.177a.53.53,0,0,1,.529.529Zm3.177,0a.53.53,0,0,1-.529.529H20.121V21.709h1.588V19.062H20.65V18h1.588a.53.53,0,0,1,.529.529Zm0-4.765H21.709V16.414H19.062V15.355h3.177a.53.53,0,0,1,.529.529Zm0-3.706a.53.53,0,0,1-.529.529H15.885a.53.53,0,0,1-.529-.529V12.708h1.059v.529h5.295V7.942H16.414v3.706H15.355V7.413a.53.53,0,0,1,.529-.529h6.354a.53.53,0,0,1,.529.529Zm-5.295-2.118V9.531A.53.53,0,0,1,18,9h2.118a.53.53,0,0,1,.529.529v2.118a.53.53,0,0,1-.529.529H18A.53.53,0,0,1,17.473,11.649Z" fill="#88b92a"/></g></svg>