<svg xmlns="http://www.w3.org/2000/svg" xmlns:xlink="http://www.w3.org/1999/xlink" width="19.323" height="19" viewBox="0 0 19.323 19"><defs><clipPath id="a"><rect width="19.323" height="19" fill="none"/></clipPath></defs><g clip-path="url(#a)"><g transform="translate(-316.108 -598)"><path d="M114.924,140.444H100.076l-.433-2.518a2.327,2.327,0,0,0-1.851-1.883l-1.176-.224a.463.463,0,1,0-.173.91l1.176.223a1.4,1.4,0,0,1,1.11,1.13l2.124,12.361a2.255,2.255,0,1,0,2.6.759h5.819a2.253,2.253,0,1,0,1.848-.9.46.46,0,0,0-.147-.024h-9.2l-.433-2.521h9.952a2.325,2.325,0,0,0,2.175-1.518l1.9-5.171a.463.463,0,0,0-.435-.623Zm-13.276,13.436a1.327,1.327,0,1,1,1.327-1.327A1.327,1.327,0,0,1,101.647,153.881Zm10.753-1.327a1.327,1.327,0,1,1-1.327-1.327A1.327,1.327,0,0,1,112.4,152.554Zm.189-6.635a1.4,1.4,0,0,1-1.3.911H101.174l-.938-5.458H114.26Z" transform="translate(220.045 462.189)" fill="#8e8e8e"/></g></g></svg>