<svg xmlns="http://www.w3.org/2000/svg" width="11.497" height="15.499" viewBox="0 0 11.497 15.499"><path d="M282.934,192.467a.332.332,0,0,0,.332-.332v-6.6a.332.332,0,1,0-.664,0v6.6A.332.332,0,0,0,282.934,192.467Z" transform="translate(-275.214 -179.052)"/><path d="M164.133,192.467a.332.332,0,0,0,.332-.332v-6.6a.332.332,0,1,0-.664,0v6.6A.332.332,0,0,0,164.133,192.467Z" transform="translate(-160.356 -179.052)"/><path d="M70.169,1.752H68.55V1.328A1.329,1.329,0,0,0,67.222,0H64.275a1.329,1.329,0,0,0-1.328,1.328v.425h-1.62A1.329,1.329,0,0,0,60,3.08V4.939a.332.332,0,0,0,.332.332h.617v8.47a1.805,1.805,0,0,0,.48,1.255,1.613,1.613,0,0,0,1.179.5h6.279a1.612,1.612,0,0,0,1.179-.5,1.8,1.8,0,0,0,.48-1.255V5.27h.617a.332.332,0,0,0,.332-.332V3.08A1.329,1.329,0,0,0,70.169,1.752Zm-6.558-.425a.665.665,0,0,1,.664-.664h2.947a.665.665,0,0,1,.664.664v.425H63.611ZM69.884,13.74a1.026,1.026,0,0,1-1,1.1H62.609a1.026,1.026,0,0,1-1-1.1V5.27h8.271Zm.949-9.134H60.664V3.08a.664.664,0,0,1,.664-.664h8.842a.664.664,0,0,1,.664.664Z" transform="translate(-60)"/></svg>