<svg xmlns="http://www.w3.org/2000/svg" width="11.81" height="12.105" viewBox="0 0 11.81 12.105"><path d="M166.279,230H155.487a.507.507,0,0,0-.452.275.514.514,0,0,0,.04.535l3.954,5.57,0,.006a1.13,1.13,0,0,1,.222.67V241.6a.5.5,0,0,0,.5.508.52.52,0,0,0,.2-.04l2.222-.847a.481.481,0,0,0,.331-.475v-3.687a1.13,1.13,0,0,1,.222-.67l0-.006,3.954-5.57a.514.514,0,0,0,.04-.535A.507.507,0,0,0,166.279,230Zm-4.041,6.022a1.749,1.749,0,0,0-.341,1.034v3.613l-2.028.773v-4.386a1.748,1.748,0,0,0-.341-1.034l-3.839-5.407h10.387Z" transform="translate(-154.978 -230)"/></svg>