<svg xmlns="http://www.w3.org/2000/svg" xmlns:xlink="http://www.w3.org/1999/xlink" width="11.855" height="11.856" viewBox="0 0 11.855 11.856"><defs><clipPath id="a"><rect width="11.855" height="11.856" fill="none"/></clipPath></defs><g clip-path="url(#a)"><path d="M4.089,6.422l-.2.2a.321.321,0,0,1-.229.095h0a.321.321,0,0,1-.229-.1L.74,3.924a.324.324,0,0,1,0-.457L3.022,1.185a.324.324,0,0,1,.457,0l2.7,2.689a.324.324,0,0,1,0,.458l-.2.2a.324.324,0,0,0,.458.458l.2-.2a.971.971,0,0,0,0-1.374L3.936.726a.972.972,0,0,0-1.371,0L.283,3.01a.972.972,0,0,0,0,1.371l2.689,2.7a.964.964,0,0,0,.687.286h0a.965.965,0,0,0,.686-.284l.2-.2a.324.324,0,1,0-.458-.458Z" transform="translate(0.001 -0.444)" fill="#fff"/><path d="M161.243,158.026a.964.964,0,0,0-.687-.286h0a.964.964,0,0,0-.686.284l-.2.2a.323.323,0,0,0,.457.457l.2-.2a.321.321,0,0,1,.229-.095h0a.321.321,0,0,1,.229.1l2.689,2.7a.324.324,0,0,1,0,.457l-2.282,2.282a.324.324,0,0,1-.457,0l-2.7-2.689a.324.324,0,0,1,0-.458l.2-.2a.324.324,0,1,0-.458-.458l-.2.2a.971.971,0,0,0,0,1.374l2.7,2.689a.972.972,0,0,0,1.371,0l2.282-2.282a.972.972,0,0,0,0-1.371Z" transform="translate(-152.358 -152.807)" fill="#fff"/><path d="M270.984,36.561a.323.323,0,0,0,.458,0l1.492-1.492a.324.324,0,0,0-.458-.458L270.984,36.1A.324.324,0,0,0,270.984,36.561Z" transform="translate(-262.277 -33.413)" fill="#fff"/><path d="M231.521,3.372a.323.323,0,0,0,.435-.143l.648-1.281a.324.324,0,1,0-.577-.292l-.648,1.281A.324.324,0,0,0,231.521,3.372Z" transform="translate(-223.963 -1.445)" fill="#fff"/><path d="M310.471,101.234a.323.323,0,0,0,.435.143l1.281-.648a.324.324,0,1,0-.292-.577l-1.281.648A.324.324,0,0,0,310.471,101.234Z" transform="translate(-300.543 -96.936)" fill="#fff"/><path d="M36.117,271.429a.324.324,0,0,0-.458,0l-1.492,1.492a.323.323,0,0,0,.457.457l1.492-1.492A.324.324,0,0,0,36.117,271.429Z" transform="translate(-32.969 -262.721)" fill="#fff"/><path d="M2.927,231.963a.323.323,0,0,0-.435-.143l-1.281.648a.324.324,0,1,0,.292.577l1.281-.648A.324.324,0,0,0,2.927,231.963Z" transform="translate(-1 -224.405)" fill="#fff"/><path d="M100.79,310.915a.323.323,0,0,0-.435.143l-.648,1.281a.324.324,0,0,0,.577.292l.648-1.281A.323.323,0,0,0,100.79,310.915Z" transform="translate(-96.493 -300.986)" fill="#fff"/><path d="M131.113,131.557a.324.324,0,0,0,0,.458L134,134.9a.324.324,0,0,0,.458-.458l-2.883-2.883A.324.324,0,0,0,131.113,131.557Z" transform="translate(-126.856 -127.299)" fill="#fff"/></g></svg>