<svg xmlns="http://www.w3.org/2000/svg" width="21.444" height="21.452" viewBox="0 0 21.444 21.452"><path d="M25.111,2.071A5.558,5.558,0,0,0,20.9,0,6.819,6.819,0,0,0,16.33,2.016l-.018.018-.023-.023A6.819,6.819,0,0,0,11.724,0,5.544,5.544,0,0,0,7.508,2.067c-6.7,7.684,6.053,17.425,8.8,19.381v0C19.054,19.5,31.807,9.755,25.111,2.071Zm-.638,9.782a23.232,23.232,0,0,1-3.022,3.881,40.561,40.561,0,0,1-5.144,4.524v0a40.936,40.936,0,0,1-5.144-4.524,22.865,22.865,0,0,1-3.022-3.881A10.539,10.539,0,0,1,6.594,7.716,6.1,6.1,0,0,1,6.8,5.19,6.886,6.886,0,0,1,8.229,2.7a4.629,4.629,0,0,1,3.5-1.731,5.885,5.885,0,0,1,3.913,1.759l.276.253.377.354.018.023v0l.023-.023.377-.354.276-.253A5.916,5.916,0,0,1,20.9.969a4.6,4.6,0,0,1,3.49,1.736A6.849,6.849,0,0,1,25.814,5.2a6.1,6.1,0,0,1,.207,2.526A10.62,10.62,0,0,1,24.473,11.854Z" transform="translate(-5.587)" fill="#434343"/></svg>