<svg id="Group_316" data-name="Group 316" xmlns="http://www.w3.org/2000/svg" width="16.24" height="16.24" viewBox="0 0 16.24 16.24">
  <path id="Path_150" data-name="Path 150" d="M-505.428,248.034h-6.92a.348.348,0,0,0-.348.348.348.348,0,0,0,.348.348h6.92a.348.348,0,0,0,.348-.348A.348.348,0,0,0-505.428,248.034Z" transform="translate(517.008 -240.036)"/>
  <path id="Path_151" data-name="Path 151" d="M-628.576,18.034a8.12,8.12,0,0,0-8.12,8.12,8.12,8.12,0,0,0,8.12,8.12,8.12,8.12,0,0,0,8.12-8.12A8.12,8.12,0,0,0-628.576,18.034Zm5.274,13.394a7.437,7.437,0,0,1-2.371,1.6,7.412,7.412,0,0,1-2.9.586,7.412,7.412,0,0,1-2.9-.586,7.434,7.434,0,0,1-2.371-1.6,7.436,7.436,0,0,1-1.6-2.371,7.413,7.413,0,0,1-.586-2.9,7.413,7.413,0,0,1,.586-2.9,7.436,7.436,0,0,1,1.6-2.371,7.434,7.434,0,0,1,2.371-1.6,7.412,7.412,0,0,1,2.9-.586,7.412,7.412,0,0,1,2.9.586,7.437,7.437,0,0,1,2.371,1.6,7.435,7.435,0,0,1,1.6,2.371,7.412,7.412,0,0,1,.586,2.9,7.412,7.412,0,0,1-.586,2.9A7.436,7.436,0,0,1-623.3,31.428Z" transform="translate(636.696 -18.034)"/>
</svg>
