<svg xmlns="http://www.w3.org/2000/svg" width="5.178" height="19.382" viewBox="0 0 5.178 19.382"><g transform="translate(141.178) rotate(90)"><path d="M273.734,136a2.589,2.589,0,1,0,2.589,2.589A2.589,2.589,0,0,0,273.734,136Zm0,4.131a1.542,1.542,0,1,1,1.542-1.542A1.541,1.541,0,0,1,273.734,140.131Z" transform="translate(-256.942)" fill="#434343"/><path d="M138.159,136a2.589,2.589,0,1,0,2.589,2.589A2.589,2.589,0,0,0,138.159,136Zm0,4.131a1.542,1.542,0,1,1,1.542-1.542A1.542,1.542,0,0,1,138.159,140.131Z" transform="translate(-128.469)" fill="#434343"/><path d="M2.589,136a2.589,2.589,0,1,0,2.589,2.589A2.589,2.589,0,0,0,2.589,136Zm0,4.131a1.542,1.542,0,1,1,1.542-1.542A1.542,1.542,0,0,1,2.589,140.131Z" fill="#434343"/></g></svg>