<svg xmlns="http://www.w3.org/2000/svg" xmlns:xlink="http://www.w3.org/1999/xlink" width="18.312" height="20.02" viewBox="0 0 18.312 20.02"><defs><clipPath id="a"><rect width="18.312" height="20.02" fill="none"/></clipPath></defs><g clip-path="url(#a)"><path d="M35.46,12.685V9.346a6.919,6.919,0,0,0-2-4.9A6.812,6.812,0,0,0,30.915,2.82V2.3a2.3,2.3,0,1,0-4.605,0V2.82a6.81,6.81,0,0,0-2.541,1.628,6.918,6.918,0,0,0-2,4.9v3.367a3.9,3.9,0,0,0-2.271,3.5.436.436,0,0,0,.436.436h5.441a3.371,3.371,0,0,0,6.742,0H37.37a.436.436,0,0,0,.436-.436,4,4,0,0,0-.923-2.492A3.323,3.323,0,0,0,35.46,12.685ZM27.181,2.3a1.431,1.431,0,1,1,2.862,0v.269a6.864,6.864,0,0,0-2.862,0ZM22.636,9.346a5.977,5.977,0,1,1,11.953,0v3.178H22.75l-.114,0Zm6.1,9.8a2.556,2.556,0,0,1-2.5-2.5h5A2.556,2.556,0,0,1,28.741,19.149ZM20.4,15.781a2.717,2.717,0,0,1,2.353-2.386h11.8A2.717,2.717,0,0,1,36.9,15.781Z" transform="translate(-19.493)" fill="#fff"/></g></svg>