<svg id="Group_317" data-name="Group 317" xmlns="http://www.w3.org/2000/svg" width="16.24" height="16.24" viewBox="0 0 16.24 16.24">
  <path id="Path_152" data-name="Path 152" d="M130.969,141.16h-3.112v-3.112a.348.348,0,1,0-.7,0v3.112h-3.112a.348.348,0,1,0,0,.7h3.112v3.112a.348.348,0,1,0,.7,0v-3.112h3.112a.348.348,0,0,0,0-.7Z" transform="translate(-119.399 -132.912)"/>
  <path id="Path_153" data-name="Path 153" d="M8.12.661a7.461,7.461,0,0,1,2.9,14.332A7.461,7.461,0,0,1,5.217,1.247,7.412,7.412,0,0,1,8.12.661M8.12,0a8.12,8.12,0,1,0,8.12,8.12A8.12,8.12,0,0,0,8.12,0Z"/>
</svg>
