<svg xmlns="http://www.w3.org/2000/svg" width="19" height="19" viewBox="0 0 19 19"><path d="M688.092,23.7a.452.452,0,0,0,.452-.452V19.3a1.359,1.359,0,0,1,1.357-1.357h3.95a.452.452,0,1,0,0-.9H689.9A2.264,2.264,0,0,0,687.64,19.3v3.95A.452.452,0,0,0,688.092,23.7Z" transform="translate(-687.64 -17.04)" fill="#8e8e8e"/><path d="M964.729,17.04h-3.95a.452.452,0,0,0,0,.9h3.95a1.359,1.359,0,0,1,1.357,1.357v3.95a.452.452,0,1,0,.9,0V19.3A2.264,2.264,0,0,0,964.729,17.04Z" transform="translate(-947.991 -17.04)" fill="#8e8e8e"/><path d="M966.539,289.727a.452.452,0,0,0-.452.452v3.95a1.359,1.359,0,0,1-1.357,1.357h-3.95a.452.452,0,0,0,0,.9h3.95a2.264,2.264,0,0,0,2.262-2.262v-3.95A.452.452,0,0,0,966.539,289.727Z" transform="translate(-947.991 -277.391)" fill="#8e8e8e"/><path d="M693.852,295.486H689.9a1.359,1.359,0,0,1-1.357-1.357v-3.95a.452.452,0,1,0-.9,0v3.95a2.264,2.264,0,0,0,2.262,2.262h3.95a.452.452,0,1,0,0-.9Z" transform="translate(-687.64 -277.391)" fill="#8e8e8e"/><path d="M822.542,148.384a3.558,3.558,0,1,0,3.558,3.558A3.558,3.558,0,0,0,822.542,148.384Zm0,6.212a2.654,2.654,0,1,1,2.654-2.654A2.654,2.654,0,0,1,822.542,154.6Z" transform="translate(-813.042 -142.442)" fill="#8e8e8e"/></svg>