<svg xmlns="http://www.w3.org/2000/svg" width="19.033" height="20.851" viewBox="0 0 19.033 20.851"><path d="M-753.836,13.126a3.525,3.525,0,0,0,3.4-2.592,3.525,3.525,0,0,0-1.6-3.965,3.525,3.525,0,0,0-4.247.5,3.525,3.525,0,0,0-.641,4.228l-6.1,3.179a3.522,3.522,0,0,0-3.9-1.175,3.522,3.522,0,0,0-2.4,3.3A3.522,3.522,0,0,0-767,19.948a3.522,3.522,0,0,0,3.93-1.088l6,3.12a3.536,3.536,0,0,0,1.624,4.554,3.536,3.536,0,0,0,4.65-1.324,3.536,3.536,0,0,0-1.018-4.727,3.536,3.536,0,0,0-4.783.708l-5.991-3.115a3.515,3.515,0,0,0,.032-2.813l6.181-3.223A3.512,3.512,0,0,0-753.836,13.126Zm0,7.646a2.605,2.605,0,0,1,2.605,2.605,2.605,2.605,0,0,1-2.605,2.605,2.605,2.605,0,0,1-2.605-2.605A2.608,2.608,0,0,1-753.836,20.772Zm-11.963-1.53a2.605,2.605,0,0,1-2.605-2.605,2.605,2.605,0,0,1,2.605-2.605,2.605,2.605,0,0,1,2.605,2.605A2.608,2.608,0,0,1-765.8,19.242ZM-753.836,7A2.605,2.605,0,0,1-751.23,9.6a2.605,2.605,0,0,1-2.605,2.605A2.605,2.605,0,0,1-756.441,9.6,2.608,2.608,0,0,1-753.836,7Z" transform="translate(769.323 -6.076)" fill="#434343"/></svg>