<svg xmlns="http://www.w3.org/2000/svg" width="24.606" height="16.151" viewBox="0 0 24.606 16.151"><path d="M23.824,89.749l-1.05-1.012a.507.507,0,0,0-.134-.092l-1.809-2.708A2.55,2.55,0,0,0,18.7,84.793H16.309a2.559,2.559,0,0,0-2.552-2.429H.511A.511.511,0,0,0,0,82.874V95.433a.511.511,0,0,0,.511.511H2.219a3.066,3.066,0,0,0,6.05,0h7.421a3.066,3.066,0,0,0,6.05,0H24.1a.511.511,0,0,0,.511-.511V91.589A2.569,2.569,0,0,0,23.824,89.749Zm-7.512-3.935H18.7a1.531,1.531,0,0,1,1.28.688l1.4,2.091H16.313ZM5.245,97.491a2.044,2.044,0,1,1,2.044-2.044A2.044,2.044,0,0,1,5.245,97.491Zm13.471,0a2.044,2.044,0,1,1,2.044-2.044A2.044,2.044,0,0,1,18.716,97.491Zm4.868-2.57H21.736a3.065,3.065,0,0,0-6.04,0H8.265a3.065,3.065,0,0,0-6.04,0h-1.2V83.385H13.757a1.535,1.535,0,0,1,1.533,1.533V89.1a.511.511,0,0,0,.511.511h6.412l.9.869a1.541,1.541,0,0,1,.469,1.1Z" transform="translate(0 -82.363)" fill="#88b92a"/><path d="M96.578,139.264a.511.511,0,0,0-.495.137h0l-4.11,4.134L89.73,141.27a.511.511,0,1,0-.727.719l2.6,2.631a.511.511,0,0,0,.363.152h0a.512.512,0,0,0,.363-.151l4.473-4.5a.511.511,0,0,0-.23-.858Z" transform="translate(-84.31 -136.337)" fill="#88b92a"/></svg>