<svg xmlns="http://www.w3.org/2000/svg" width="14.837" height="18.925" viewBox="0 0 14.837 18.925"><path d="M130.719,7.977a3.989,3.989,0,1,0-3.988-3.988A3.989,3.989,0,0,0,130.719,7.977Zm0-7.132a3.144,3.144,0,1,1-3.144,3.144A3.144,3.144,0,0,1,130.719.845Z" transform="translate(-123.405)" fill="#8e8e8e"/><path d="M55.418,222.09A7.416,7.416,0,0,0,48,229.508v1.7a.422.422,0,0,0,.422.422H62.414a.422.422,0,0,0,.422-.422v-1.7A7.415,7.415,0,0,0,55.418,222.09Zm6.574,8.7H48.845v-1.28a6.574,6.574,0,1,1,13.147,0Z" transform="translate(-48 -212.708)" fill="#8e8e8e"/></svg>