<svg xmlns="http://www.w3.org/2000/svg" xmlns:xlink="http://www.w3.org/1999/xlink" width="15" height="8.929" viewBox="0 0 15 8.929"><defs><clipPath id="a"><rect width="15" height="8.929" fill="none"/></clipPath></defs><g clip-path="url(#a)"><path d="M-167.3,463.554a3.409,3.409,0,0,0-3.277,3.528,3.41,3.41,0,0,0,3.277,3.528,3.409,3.409,0,0,0,3.277-3.528A3.413,3.413,0,0,0-167.3,463.554Zm0,6.364a2.741,2.741,0,0,1-2.635-2.836,2.741,2.741,0,0,1,2.635-2.836,2.741,2.741,0,0,1,2.635,2.836A2.744,2.744,0,0,1-167.3,469.918Z" transform="translate(174.802 -462.617)" fill="#8e8e8e"/><path d="M-285.54,434.047a7.618,7.618,0,0,1,4.146,1.412,14.634,14.634,0,0,1,2.67,2.3.2.2,0,0,1,0,.174,14.63,14.63,0,0,1-2.67,2.3,7.618,7.618,0,0,1-4.146,1.412,7.618,7.618,0,0,1-4.146-1.412,14.628,14.628,0,0,1-2.67-2.3.2.2,0,0,1,0-.174,14.634,14.634,0,0,1,2.67-2.3,7.618,7.618,0,0,1,4.146-1.412m0-.663c-3.363,0-6.227,2.746-7.307,3.931a.833.833,0,0,0,0,1.067c1.079,1.185,3.943,3.931,7.307,3.931s6.227-2.746,7.307-3.931a.833.833,0,0,0,0-1.067c-1.079-1.185-3.943-3.931-7.307-3.931Z" transform="translate(293.04 -433.384)" fill="#8e8e8e"/></g></svg>