<svg xmlns="http://www.w3.org/2000/svg" width="192.401" height="186.355" viewBox="0 0 192.401 186.355"><g transform="translate(-1485.959 -1421.106)"><path d="M1487.575,1498.905a1.616,1.616,0,0,1-1.616-1.616v-58.462a17.707,17.707,0,0,1,17.721-17.721h58.463a1.616,1.616,0,0,1,0,3.231H1503.68a14.506,14.506,0,0,0-14.49,14.49v58.462A1.615,1.615,0,0,1,1487.575,1498.905Z" fill="#fff"/><path d="M1676.745,1498.905a1.616,1.616,0,0,1-1.616-1.616v-58.462a14.506,14.506,0,0,0-14.49-14.49h-58.462a1.616,1.616,0,1,1,0-3.231h58.462a17.706,17.706,0,0,1,17.721,17.721v58.462A1.615,1.615,0,0,1,1676.745,1498.905Z" fill="#fff"/><path d="M1660.639,1607.461h-58.462a1.615,1.615,0,1,1,0-3.23h58.462a14.506,14.506,0,0,0,14.49-14.49v-58.463a1.615,1.615,0,0,1,3.231,0v58.463a17.707,17.707,0,0,1-17.721,17.72Z" fill="#fff"/><path d="M1562.143,1607.461H1503.68a17.709,17.709,0,0,1-17.721-17.72v-58.463a1.615,1.615,0,0,1,3.231,0v58.463a14.506,14.506,0,0,0,14.49,14.49h58.463a1.615,1.615,0,1,1,0,3.23Z" fill="#fff"/></g></svg>