<svg xmlns="http://www.w3.org/2000/svg" width="12.231" height="11.679" viewBox="0 0 12.231 11.679"><path d="M-364.263,287.614l1.521,3.083a.476.476,0,0,0,.358.26l3.4.494a.476.476,0,0,1,.264.811l-2.462,2.4a.476.476,0,0,0-.137.421l.581,3.388a.476.476,0,0,1-.69.5l-3.043-1.6a.476.476,0,0,0-.443,0l-3.043,1.6a.476.476,0,0,1-.69-.5l.581-3.388a.476.476,0,0,0-.137-.421l-2.462-2.4a.476.476,0,0,1,.264-.811l3.4-.494a.476.476,0,0,0,.358-.26l1.521-3.083A.476.476,0,0,1-364.263,287.614Z" transform="translate(370.805 -287.349)" fill="#f1e20f"/></svg>